<svg xmlns="http://www.w3.org/2000/svg" width="88.684" height="48.345" viewBox="0 0 88.684 48.345">
  <g id="Menarini-Portugal_negativo" transform="translate(-16.85 -31.32)">
    <g id="Raggruppa_3207" data-name="Raggruppa 3207" transform="translate(16.85 74.046)">
      <path id="Tracciato_3575" data-name="Tracciato 3575" d="M20.035,302.872l-.008-.022H18.747l-1.9,5.312h1.218l.352-1.08h1.87l.352,1.08H21.9ZM20,306.113H18.75l.636-1.911Z" transform="translate(-16.85 -302.697)" fill="#fff"/>
      <rect id="Rettangolo_659" data-name="Rettangolo 659" width="1.146" height="1.124" transform="translate(5.743 4.341)" fill="#fff"/>
      <path id="Tracciato_3576" data-name="Tracciato 3576" d="M83.79,302.732l-.922,3.986-.916-3.983,0-.025H80.3v5.312h1.08v-4.115l.91,4.137H83.4l.932-4.123v4.123h1.08v-5.312Z" transform="translate(-70.28 -302.579)" fill="#fff"/>
      <path id="Tracciato_3577" data-name="Tracciato 3577" d="M120.386,307.009v-1.279h2.535v-.97h-2.535v-1.036h2.754V302.71h-3.9v5.312h4.033v-1.014Z" transform="translate(-103.071 -302.579)" fill="#fff"/>
      <path id="Tracciato_3578" data-name="Tracciato 3578" d="M152.909,302.85v3.566l-2.009-3.548-.009-.017H149.67v5.312h1.08v-3.634l2.075,3.616.009.017h1.154V302.85Z" transform="translate(-128.695 -302.697)" fill="#fff"/>
      <path id="Tracciato_3579" data-name="Tracciato 3579" d="M184.035,302.872l-.008-.022h-1.281l-1.9,5.312h1.218l.352-1.08h1.87l.352,1.08H185.9Zm-.055,3.24h-1.254l.636-1.911Z" transform="translate(-154.951 -302.697)" fill="#fff"/>
      <path id="Tracciato_3580" data-name="Tracciato 3580" d="M221.061,307.951a.4.4,0,0,1-.183-.289,2.648,2.648,0,0,1-.021-.477v-.352A1.576,1.576,0,0,0,220.7,306a.884.884,0,0,0-.442-.4,1.055,1.055,0,0,0,.553-.494,1.547,1.547,0,0,0,.2-.744,1.434,1.434,0,0,0-.092-.564,1.835,1.835,0,0,0-.268-.448,1.189,1.189,0,0,0-.5-.385l0,0a3.348,3.348,0,0,0-.8-.134H216.8v5.312h1.146v-2.05h1.025a.837.837,0,0,1,.594.166.929.929,0,0,1,.167.638v.485a2.483,2.483,0,0,0,.038.395l.006.046a.916.916,0,0,0,.068.3l.008.02h1.224v-.185Zm-3.158-4.126h1.158a1.007,1.007,0,0,1,.491.084.646.646,0,0,1,.292.611.575.575,0,0,1-.292.567,1.038,1.038,0,0,1-.512.084H217.9v-1.345Z" transform="translate(-185.224 -302.68)" fill="#fff"/>
      <rect id="Rettangolo_660" data-name="Rettangolo 660" width="1.146" height="5.312" transform="translate(36.733 0.153)" fill="#fff"/>
      <path id="Tracciato_3581" data-name="Tracciato 3581" d="M266.1,302.85v3.566l-2.01-3.548-.009-.017H262.86v5.312h1.08v-3.634l2.077,3.616.009.017h1.153V302.85Z" transform="translate(-224.011 -302.697)" fill="#fff"/>
      <rect id="Rettangolo_661" data-name="Rettangolo 661" width="1.146" height="5.312" transform="translate(44.184 0.153)" fill="#fff"/>
      <path id="Tracciato_3582" data-name="Tracciato 3582" d="M327.839,304.4a1.611,1.611,0,0,0-.474-1.282,1.849,1.849,0,0,0-1.255-.4h-2.26v5.312H325v-1.873h1.047a2,2,0,0,0,1.344-.382A1.609,1.609,0,0,0,327.839,304.4Zm-1.146.022a.781.781,0,0,1-.188.572.759.759,0,0,1-.55.188H325V303.7h.959a.872.872,0,0,1,.551.167A.754.754,0,0,1,326.693,304.419Z" transform="translate(-275.369 -302.579)" fill="#fff"/>
      <path id="Tracciato_3583" data-name="Tracciato 3583" d="M357.169,302.507a2.27,2.27,0,0,0-1.743-.627,2.371,2.371,0,0,0-1.742.625,2.828,2.828,0,0,0-.8,2.184,2.86,2.86,0,0,0,.8,2.182,2.27,2.27,0,0,0,1.743.627,2.365,2.365,0,0,0,1.742-.627,2.9,2.9,0,0,0,.8-2.184A2.787,2.787,0,0,0,357.169,302.507Zm-.733,3.528a1.3,1.3,0,0,1-1.009.472,1.206,1.206,0,0,1-1.011-.472,2.515,2.515,0,0,1,0-2.691,1.317,1.317,0,0,1,2.02,0,2.209,2.209,0,0,1,.368,1.347,2.027,2.027,0,0,1-.368,1.345Z" transform="translate(-299.815 -301.88)" fill="#fff"/>
      <path id="Tracciato_3584" data-name="Tracciato 3584" d="M394.711,307.951a.4.4,0,0,1-.183-.289,2.648,2.648,0,0,1-.021-.477v-.352a1.576,1.576,0,0,0-.158-.831.884.884,0,0,0-.442-.4,1.054,1.054,0,0,0,.553-.494,1.547,1.547,0,0,0,.2-.744,1.434,1.434,0,0,0-.092-.564,1.884,1.884,0,0,0-.268-.448,1.189,1.189,0,0,0-.5-.385l0,0a3.368,3.368,0,0,0-.826-.134H390.43v5.312h1.124v-2.05h1.025a.834.834,0,0,1,.594.166.929.929,0,0,1,.167.638v.485a2.678,2.678,0,0,0,.036.395l.006.047a.917.917,0,0,0,.068.3l.008.02h1.268v-.185Zm-3.136-4.126h1.158a1.007,1.007,0,0,1,.491.084.646.646,0,0,1,.292.611.575.575,0,0,1-.292.567,1.038,1.038,0,0,1-.512.084h-1.135v-1.345Z" transform="translate(-331.435 -302.68)" fill="#fff"/>
      <path id="Tracciato_3585" data-name="Tracciato 3585" d="M420.85,302.85v.992h1.565v4.3h1.169v-4.3h1.565v-.992Z" transform="translate(-357.051 -302.697)" fill="#fff"/>
      <path id="Tracciato_3586" data-name="Tracciato 3586" d="M454.808,302.85V306.1a1.744,1.744,0,0,1-.129.78,1.026,1.026,0,0,1-1.66,0,1.823,1.823,0,0,1-.128-.779V302.85H451.7V306.1a2.691,2.691,0,0,0,.268,1.317,1.99,1.99,0,0,0,1.881.876,1.947,1.947,0,0,0,1.859-.876,2.686,2.686,0,0,0,.268-1.317V302.85Z" transform="translate(-383.029 -302.697)" fill="#fff"/>
      <path id="Tracciato_3587" data-name="Tracciato 3587" d="M486.476,305.406h1.2a1.355,1.355,0,0,1-.422.779,1.323,1.323,0,0,1-.883.3,1.4,1.4,0,0,1-.97-.389,1.8,1.8,0,0,1-.43-1.342,2.144,2.144,0,0,1,.39-1.412,1.231,1.231,0,0,1,1.011-.472,1.251,1.251,0,0,1,.583.107.986.986,0,0,1,.6.726l.032,0v.006h1.162l0-.038a1.954,1.954,0,0,0-.717-1.278,2.562,2.562,0,0,0-1.63-.513,2.434,2.434,0,0,0-1.876.782,2.932,2.932,0,0,0-.714,2.05,2.767,2.767,0,0,0,.692,2.006,2.233,2.233,0,0,0,1.721.739,2.027,2.027,0,0,0,1.075-.27,2.8,2.8,0,0,0,.534-.485l.1.622h.788v-2.866h-2.249Z" transform="translate(-410.068 -301.88)" fill="#fff"/>
      <path id="Tracciato_3588" data-name="Tracciato 3588" d="M521.8,302.872l-.008-.022h-1.281l-1.881,5.268-.016.044h1.218l.352-1.08h1.87l.352,1.08h1.26Zm-.033,3.24h-1.254l.636-1.911Z" transform="translate(-439.373 -302.697)" fill="#fff"/>
      <path id="Tracciato_3589" data-name="Tracciato 3589" d="M555.706,307.149v-4.3h-1.135v.033h-.011v5.279h3.769v-1.014Z" transform="translate(-469.646 -302.697)" fill="#fff"/>
    </g>
    <g id="Raggruppa_3212" data-name="Raggruppa 3212" transform="translate(44.249 31.32)">
      <path id="Tracciato_3599" data-name="Tracciato 3599" d="M190.35,31.32V65.2h33.877V31.32Z" transform="translate(-190.35 -31.32)" fill="#fff"/>
      <g id="Raggruppa_3208" data-name="Raggruppa 3208" transform="translate(6.524 18.492)">
        <path id="Tracciato_3590" data-name="Tracciato 3590" d="M231.66,163.517v-15.1l10.4,14.878,10.426-14.878v15.1H231.66" transform="translate(-231.66 -148.42)" fill="#e1071b"/>
      </g>
      <path id="Tracciato_3591" data-name="Tracciato 3591" d="M190.35,31.32V65.2h33.877V31.32Zm6.811,33.3V50.716L206.9,64.623Zm10.513,0,9.742-13.908V64.623Zm15.98,0h-5.687V48.909L207.277,64.2l-10.69-15.3V64.623h-5.665V31.892h.017l16.337,22.481,16.359-22.481h.019V64.623Z" transform="translate(-190.35 -31.32)" fill="#020203"/>
      <g id="Raggruppa_3209" data-name="Raggruppa 3209" transform="translate(33.591 0.286)">
        <path id="Tracciato_3592" data-name="Tracciato 3592" d="M403.06,33.13" transform="translate(-403.06 -33.13)" fill="none" stroke="#020203" stroke-width="3.601"/>
      </g>
      <path id="Tracciato_3593" data-name="Tracciato 3593" d="M292.41,133.63h-2.4v.848l1.7.43-1.7.452v.846h2.4v-.592h-1.658l1.636-.409v-.6l-1.636-.409h1.658Z" transform="translate(-274.272 -117.473)" fill="#fff"/>
      <path id="Tracciato_3594" data-name="Tracciato 3594" d="M291.907,118.14v1.41h-.51v-1.235h-.482v1.235h-.422v-1.344h-.483v1.958h2.4V118.14Z" transform="translate(-274.272 -104.43)" fill="#fff"/>
      <path id="Tracciato_3595" data-name="Tracciato 3595" d="M292.41,102.51h-2.4v.57h1.5l-1.5.948v.638h2.4v-.591h-1.548l1.548-.971Z" transform="translate(-274.272 -91.268)" fill="#fff"/>
      <path id="Tracciato_3596" data-name="Tracciato 3596" d="M292.419,85.745V85.08l-2.4.936v.654l2.4.936v-.644l-.485-.177V85.92Zm-.966.34v.538l-.737-.27Z" transform="translate(-274.28 -76.59)" fill="#fff"/>
      <path id="Tracciato_3597" data-name="Tracciato 3597" d="M291.456,70.245c.02-.032.082-.07.251-.07h.221a.675.675,0,0,0,.207-.022.35.35,0,0,0,.073-.022c.019-.006.039-.016.065-.024l.028-.009V69.43h-.134l-.011.024a.108.108,0,0,1-.095.065.442.442,0,0,0-.069.008.884.884,0,0,1-.152.014h-.155a.9.9,0,0,0-.4.073.484.484,0,0,0-.148.171.517.517,0,0,0-.2-.238.683.683,0,0,0-.608-.047.559.559,0,0,0-.215.142.616.616,0,0,0-.163.254,1.057,1.057,0,0,0-.071.437v1.342H292.3V71.06h-.9v-.508A.583.583,0,0,1,291.456,70.245Zm-1.031-.008a.246.246,0,0,1,.246-.126c.122,0,.19.038.224.125a.776.776,0,0,1,.043.251v.553h-.532l0-.584A.389.389,0,0,1,290.425,70.237Z" transform="translate(-274.162 -63.412)" fill="#fff"/>
      <rect id="Rettangolo_662" data-name="Rettangolo 662" width="2.399" height="0.614" transform="translate(15.738 5.135)" fill="#fff"/>
      <path id="Tracciato_3598" data-name="Tracciato 3598" d="M292.41,47.65h-2.4v.57h1.5l-1.5.949v.638h2.4v-.592h-1.548l1.548-.97Z" transform="translate(-274.272 -45.071)" fill="#fff"/>
      <rect id="Rettangolo_663" data-name="Rettangolo 663" width="2.399" height="0.614" transform="translate(15.738 1.587)" fill="#fff"/>
      <g id="Raggruppa_3210" data-name="Raggruppa 3210" transform="translate(17.303 33.436)">
        <rect id="Rettangolo_664" data-name="Rettangolo 664" width="4.188" height="0.043" fill="#020203"/>
      </g>
      <g id="Raggruppa_3211" data-name="Raggruppa 3211" transform="translate(17.303 33.81)">
        <rect id="Rettangolo_665" data-name="Rettangolo 665" width="4.188" height="0.043" fill="#020203"/>
      </g>
    </g>
  </g>
</svg>
